<?xml version="1.0" encoding="UTF-8" standalone="no"?>
<svg
   width="337.24524"
   height="116.0517"
   viewBox="0 0 89.229468 30.705348"
   version="1.1"
   id="svg6028"
   xmlns:xlink="http://www.w3.org/1999/xlink"
   xmlns="http://www.w3.org/2000/svg"
   xmlns:svg="http://www.w3.org/2000/svg"
   xmlns:rdf="http://www.w3.org/1999/02/22-rdf-syntax-ns#"
   xmlns:cc="http://creativecommons.org/ns#"
   xmlns:dc="http://purl.org/dc/elements/1.1/">
  <defs
     id="defs5984">
    <linearGradient
       id="linearGradient5936">
      <stop
         style="stop-color:#ab47bc;stop-opacity:1"
         offset="0"
         id="stop5932" />
      <stop
         style="stop-color:#0097a7;stop-opacity:1"
         offset="1"
         id="stop5934" />
    </linearGradient>
    <clipPath
       clipPathUnits="userSpaceOnUse"
       id="clipPath5942">
      <text
         transform="scale(0.93025505,1.074974)"
         xml:space="preserve"
         style="font-style:normal;font-variant:normal;font-weight:bold;font-stretch:normal;line-height:0%;font-family:Aharoni;-inkscape-font-specification:'Aharoni Bold';text-align:center;letter-spacing:0px;word-spacing:0px;text-anchor:middle;fill:#1e88e5;fill-opacity:1;stroke:none;stroke-width:1px;stroke-linecap:butt;stroke-linejoin:miter;stroke-opacity:1"
         x="171.21706"
         y="270.93829"
         id="text5940"><tspan
           x="171.21706"
           y="270.93829"
           style="font-size:57.9691px;line-height:1.25"
           id="tspan5938">u</tspan></text>
    </clipPath>
    <clipPath
       clipPathUnits="userSpaceOnUse"
       id="clipPath5948">
      <text
         y="305.86615"
         x="147.83304"
         style="font-style:normal;font-variant:normal;font-weight:normal;font-stretch:normal;line-height:0%;font-family:Roboto;-inkscape-font-specification:Roboto;text-align:center;letter-spacing:0px;word-spacing:0px;text-anchor:middle;fill:#666;fill-opacity:1;stroke:none;stroke-width:1px;stroke-linecap:butt;stroke-linejoin:miter;stroke-opacity:1"
         xml:space="preserve"
         id="text5946"><tspan
           y="305.86615"
           x="147.83304"
           style="font-size:98.8709px;line-height:1.25"
           id="tspan5944">L</tspan></text>
    </clipPath>
    <clipPath
       clipPathUnits="userSpaceOnUse"
       id="clipPath5952">
      <circle
         r="42.048023"
         cy="286.76694"
         cx="154.68613"
         style="opacity:1;fill:#e53935;fill-opacity:0.98452;stroke:white;stroke-width:2;stroke-linecap:round;stroke-linejoin:round;stroke-miterlimit:4;stroke-dasharray:none;stroke-opacity:1"
         id="circle5950" />
    </clipPath>
    <clipPath
       clipPathUnits="userSpaceOnUse"
       id="clipPath5956">
      <path
         style="fill:#fafafa;fill-rule:evenodd;stroke:black;stroke-width:1px;stroke-linecap:butt;stroke-linejoin:miter;stroke-opacity:1"
         d="m 348,-443.6378 c 29.34496,109.16979 15.73779,277.19625 88,353.000005 90.37317,-23.518735 180.54514,-37.000005 268,-37.000005 4.19582,-118.78043 -72.22615,-227.83272 -46,-346 -99.75779,60.55456 -227.06892,-28.62548 -310,30 z"
         id="path5954" />
    </clipPath>
    <linearGradient
       xlink:href="#linearGradient4926"
       gradientUnits="userSpaceOnUse"
       x1="-127.41205"
       y1="68.288658"
       x2="-20.784971"
       y2="68.288658"
       gradientTransform="translate(492.41991,5.166512)"
       id="linearGradient5958" />
    <linearGradient
       id="linearGradient5964">
      <stop
         style="stop-color:#f0c5f9;stop-opacity:1;"
         offset="0"
         id="stop5960" />
      <stop
         style="stop-color:#80cbc4;stop-opacity:1"
         offset="1"
         id="stop5962" />
    </linearGradient>
    <clipPath
       clipPathUnits="userSpaceOnUse"
       id="clipPath5968">
      <path
         d="m 42.76693,121.82758 c 10.25046,15.84939 -23.949943,12.76992 -12.138798,-0.19657 -11.560315,-12.60714 5.320698,-20.68259 7.495252,-0.71382 2.416788,-3.86895 3.461255,-6.31333 6.328222,-7.43001 1.316139,4.60643 0.839411,9.61972 -1.684676,8.3404 z"
         style="opacity:1;vector-effect:none;fill:#3ec8a7;fill-opacity:1;stroke:black;stroke-width:0.529167;stroke-linecap:round;stroke-linejoin:miter;stroke-miterlimit:4;stroke-dasharray:none;stroke-dashoffset:0;stroke-opacity:1"
         id="path5966" />
    </clipPath>
    <clipPath
       clipPathUnits="userSpaceOnUse"
       id="clipPath5972">
      <rect
         y="80.32312"
         x="122.31289"
         height="46.79303"
         width="65.834343"
         style="opacity:1;fill:url(#linearGradient15796);fill-opacity:1;fill-rule:evenodd;stroke:none;stroke-width:0.079375;stroke-linecap:butt;stroke-linejoin:miter;stroke-miterlimit:4;stroke-dasharray:none;stroke-opacity:1;paint-order:normal"
         id="rect5970" />
    </clipPath>
    <linearGradient
       xlink:href="#linearGradient14347"
       gradientUnits="userSpaceOnUse"
       x1="40.335026"
       y1="106.14644"
       x2="85.799774"
       y2="136.64366"
       gradientTransform="matrix(1.4413476,0,0,1.4413476,71.367226,-66.289944)"
       id="linearGradient5974" />
    <clipPath
       clipPathUnits="userSpaceOnUse"
       id="clipPath5978">
      <path
         d="m 58.764229,173.04402 c 6.469771,11.78841 -18.400363,10.5406 -9.85335,-1.33965 -7.372657,-14.76413 13.392585,-17.25348 4.959927,0.79854 1.371761,-1.15695 3.552223,-4.91046 7.062252,-5.1016 1.206164,3.0523 -0.948315,5.47353 -2.168829,5.64271 z"
         style="opacity:1;vector-effect:none;fill:none;fill-opacity:1;stroke:black;stroke-width:0.529167;stroke-linecap:round;stroke-linejoin:miter;stroke-miterlimit:5;stroke-dasharray:none;stroke-dashoffset:0;stroke-opacity:1"
         id="path5976" />
    </clipPath>
    <clipPath
       clipPathUnits="userSpaceOnUse"
       id="clipPath5982">
      <rect
         y="86.933281"
         x="106.88914"
         height="59.843895"
         width="82.275055"
         style="opacity:1;fill:url(#linearGradient16123);fill-opacity:1;fill-rule:evenodd;stroke:none;stroke-width:0.079375;stroke-linecap:butt;stroke-linejoin:miter;stroke-miterlimit:4;stroke-dasharray:none;stroke-opacity:1;paint-order:normal"
         id="rect5980" />
    </clipPath>
  </defs>
  <metadata
     id="metadata5986">
    <rdf:RDF>
      <cc:Work
         rdf:about="">
        <dc:format>image/svg+xml</dc:format>
        <dc:type
           rdf:resource="http://purl.org/dc/dcmitype/StillImage" />
      </cc:Work>
    </rdf:RDF>
  </metadata>
  <g
     transform="translate(-87.373978,-91.734627)"
     id="g6026"
     style="fill:white">
    <g
       aria-label="about"
       style="font-style:normal;font-variant:normal;font-weight:300;font-stretch:normal;font-size:17.8409px;line-height:1.25;font-family:'Roboto Slab';-inkscape-font-specification:'Roboto Slab Light';fill:white;fill-opacity:1;stroke-width:0.446024"
       id="g5998">
      <path
         d="m 92.535129,114.0884 q -1.341552,0 -2.099442,-0.71434 -0.75789,-0.71433 -0.75789,-1.93392 0,-0.87114 0.50526,-1.52449 0.50526,-0.66207 1.428666,-1.02795 0.932117,-0.36587 2.203978,-0.36587 h 1.951349 v -1.08022 q 0,-1.01923 -0.609797,-1.63773 -0.601085,-0.62722 -1.820677,-0.62722 -0.688199,0 -1.237016,0.22649 -0.540105,0.21779 -0.940829,0.55753 l -0.08711,1.43738 h -0.862426 v -1.96877 q 0.609797,-0.52269 1.385109,-0.81887 0.775313,-0.3049 1.759698,-0.3049 1.663873,0 2.561145,0.83629 0.897272,0.83629 0.897272,2.31723 v 4.54734 q 0,0.27876 0.01742,0.55752 0.01742,0.27006 0.06098,0.54011 l 1.123768,0.0436 v 0.75789 H 95.9587 q -0.104536,-0.51397 -0.148093,-0.82758 -0.03485,-0.31361 -0.04356,-0.70563 -0.513972,0.75789 -1.358975,1.23702 -0.845004,0.47913 -1.872946,0.47913 z m 0.121959,-0.9147 q 0.966963,0 1.829389,-0.50526 0.871138,-0.51397 1.280573,-1.35897 v -1.9862 h -1.96006 q -1.446089,0 -2.264958,0.62722 -0.81887,0.61851 -0.81887,1.52449 0,0.75789 0.522683,1.22831 0.522683,0.47041 1.411243,0.47041 z"
         style="font-style:normal;font-variant:normal;font-weight:300;font-stretch:normal;font-family:'Roboto Slab';-inkscape-font-specification:'Roboto Slab Light';fill:white;fill-opacity:1;stroke-width:0.446024"
         id="path5988" />
      <path
         d="m 103.98188,114.0884 q -1.03666,0 -1.79454,-0.40944 -0.74918,-0.40943 -1.21089,-1.14119 l -0.10453,1.36769 h -0.897275 v -12.7099 l -1.419954,-0.11325 v -0.7666 h 2.465319 v 5.60141 q 0.4617,-0.75789 1.19346,-1.18474 0.74047,-0.42686 1.75099,-0.42686 1.13248,0 1.94263,0.61851 0.81016,0.60979 1.23702,1.72485 0.43557,1.11506 0.43557,2.62212 v 0.18294 q 0,1.41125 -0.43557,2.4479 -0.42686,1.03665 -1.23702,1.6116 -0.80144,0.57496 -1.92521,0.57496 z m -0.20036,-0.89728 q 1.35897,0 2.04717,-1.01052 0.69691,-1.01923 0.69691,-2.72666 V 109.271 q 0,-1.21088 -0.31361,-2.12557 -0.3049,-0.9147 -0.9234,-1.42867 -0.6098,-0.51397 -1.5245,-0.51397 -1.10634,0 -1.76841,0.55753 -0.65335,0.54882 -0.97567,1.39382 v 4.25115 q 0.33103,0.81887 1.02794,1.30671 0.69691,0.47912 1.73357,0.47912 z"
         style="font-style:normal;font-variant:normal;font-weight:300;font-stretch:normal;font-family:'Roboto Slab';-inkscape-font-specification:'Roboto Slab Light';fill:white;fill-opacity:1;stroke-width:0.446024"
         id="path5990" />
      <path
         d="m 113.50341,114.0884 q -1.27186,0 -2.21269,-0.60109 -0.93211,-0.6098 -1.4548,-1.6813 -0.51397,-1.08021 -0.51397,-2.46532 v -0.28747 q 0,-1.38511 0.51397,-2.45661 0.52269,-1.0715 1.4548,-1.68129 0.94083,-0.6098 2.19527,-0.6098 1.26315,0 2.19527,0.6098 0.94083,0.60979 1.4548,1.68129 0.52268,1.06279 0.52268,2.45661 v 0.28747 q 0,1.39383 -0.52268,2.46532 -0.51397,1.0715 -1.4548,1.6813 -0.93212,0.60109 -2.17785,0.60109 z m 0,-0.87114 q 0.96697,0 1.66388,-0.51397 0.69691,-0.51397 1.0715,-1.39382 0.37459,-0.87985 0.37459,-1.96878 v -0.28747 q 0,-1.08021 -0.37459,-1.96006 -0.37459,-0.87985 -1.08021,-1.39382 -0.69691,-0.51397 -1.67259,-0.51397 -0.97567,0 -1.68129,0.51397 -0.69692,0.51397 -1.0715,1.39382 -0.36588,0.87985 -0.36588,1.96006 v 0.28747 q 0,1.09764 0.36588,1.97749 0.37458,0.87114 1.0715,1.38511 0.70562,0.51397 1.69871,0.51397 z"
         style="font-style:normal;font-variant:normal;font-weight:300;font-stretch:normal;font-family:'Roboto Slab';-inkscape-font-specification:'Roboto Slab Light';fill:white;fill-opacity:1;stroke-width:0.446024"
         id="path5992" />
      <path
         d="m 123.17304,114.0884 q -1.48093,0 -2.30851,-1.01052 -0.81887,-1.01052 -0.81887,-3.1361 v -4.58218 l -1.16733,-0.11325 v -0.7666 h 1.16733 1.04536 v 5.47945 q 0,1.72486 0.56624,2.48275 0.56624,0.74917 1.63774,0.74917 1.21088,0 1.89037,-0.55752 0.67949,-0.56624 0.93212,-1.51578 v -5.75822 l -1.34156,-0.11325 v -0.7666 h 1.34156 1.05407 v 8.55457 l 1.26315,0.11325 v 0.75789 h -2.18655 l -0.0871,-1.55063 q -0.44428,0.82758 -1.19346,1.28057 -0.74046,0.453 -1.79454,0.453 z"
         style="font-style:normal;font-variant:normal;font-weight:300;font-stretch:normal;font-family:'Roboto Slab';-inkscape-font-specification:'Roboto Slab Light';fill:white;fill-opacity:1;stroke-width:0.446024"
         id="path5994" />
      <path
         d="m 133.22597,114.07097 q -0.99309,0 -1.54191,-0.60979 -0.54882,-0.61851 -0.54882,-1.9862 v -6.15023 h -1.62903 v -0.845 h 1.62903 v -2.42177 h 1.04537 v 2.42177 h 2.19526 v 0.845 h -2.19526 v 6.15023 q 0,0.94083 0.33103,1.35898 0.33974,0.40943 0.89727,0.40943 0.29619,0 0.58366,-0.0348 0.28748,-0.0436 0.59238,-0.0871 l 0.1568,0.74918 q -0.31361,0.0958 -0.71433,0.14809 -0.40072,0.0523 -0.80145,0.0523 z"
         style="font-style:normal;font-variant:normal;font-weight:300;font-stretch:normal;font-family:'Roboto Slab';-inkscape-font-specification:'Roboto Slab Light';fill:white;fill-opacity:1;stroke-width:0.446024"
         id="path5996" />
    </g>
    <circle
       r="0"
       style="fill:white;fill-opacity:0.98452;stroke:url(#linearGradient5059);stroke-width:1.14003;stroke-linecap:round;stroke-linejoin:round;stroke-miterlimit:4;stroke-dasharray:none;stroke-opacity:1"
       cx="429.33749"
       cy="80.861465"
       id="circle6000" />
    <g
       transform="matrix(0.52305861,0,0,0.52305861,146.62365,95.081473)"
       style="fill:white;fill-opacity:1"
       id="g6016">
      <circle
         r="0"
         style="opacity:1;fill:white;fill-opacity:1;stroke:none;stroke-width:1.14003;stroke-linecap:round;stroke-linejoin:round;stroke-miterlimit:4;stroke-dasharray:none;stroke-opacity:1"
         cx="30.599165"
         cy="23.199165"
         id="circle6002" />
      <path
         style="font-style:normal;font-variant:normal;font-weight:normal;font-stretch:normal;font-size:103.291px;line-height:125%;font-family:Roboto;-inkscape-font-specification:Roboto;text-align:center;letter-spacing:0px;word-spacing:0px;text-anchor:middle;fill:white;fill-opacity:1;stroke:none;stroke-width:2.15438px;stroke-linecap:butt;stroke-linejoin:miter;stroke-opacity:1"
         d="m 913.16992,284.99805 v 173.07617 l 143.20508,0.58203 c -17.0725,-7.39013 -31.4923,-19.76159 -41.416,-35.2832 l -63.41994,-0.0762 v -138.2988 z m 106.93358,138.38086 c 10.3117,15.08265 25.1709,26.80723 42.6113,33.19531 l 20.9903,-33.11914 z m 86.7266,24.46093 -7.0703,10.99219 12.4023,0.0508 z"
         transform="matrix(0.26458333,0,0,0.26458333,-258.63164,-75.625862)"
         id="path6004" />
      <path
         d="m 30.599797,-0.19945964 c -9.877319,0 -18.318877,6.11052554 -21.7536977,14.75982364 h 1.3626837 c 2.092298,0 3.79513,1.700757 3.79513,3.793051 v 14.007927 c 0,1.804739 -1.09048,3.642858 -2.78167,4.023993 2.736215,4.156188 6.582965,7.054651 11.329987,8.792281 l 8.026374,-12.369271 c 0.02143,-0.04325 -0.02709,-0.13191 -0.09559,-0.0956 -0.353325,0.128477 -0.931281,0.192755 -1.734265,0.192755 -1.605968,0 -3.179947,-0.386173 -4.721674,-1.157036 -4.336098,-2.151986 -6.503988,-5.796701 -6.503988,-10.935767 0,-3.918542 1.332812,-7.16321 3.998727,-9.73274 2.633769,-2.5374147 5.909787,-3.8064807 9.828319,-3.806486 4.753636,0 8.495559,1.5580598 11.225688,4.673618 1.991387,2.248342 2.986881,5.155682 2.986881,8.720913 0,3.244035 -1.140512,6.535489 -3.420983,9.875882 L 31.837438,46.565128 c 12.35292,-0.642893 22.160415,-10.852176 22.160415,-23.366015 0,-12.929076 -10.46898,-23.39857264 -23.398056,-23.39857264 z m 3.115045,13.77486964 -3.142959,3.126941 -4.433305,-0.08372 2.002975,3.956349 -1.44952,4.190442 4.381633,-0.682128 3.537267,2.672186 0.70485,-4.376991 3.635957,-2.538865 -3.946022,-2.022616 z M 8.4275021,15.699313 c -0.3113088,0.92153 -0.5644886,1.869517 -0.760148,2.838585 h 2.8613099 v 8.99015 c 0,1.881169 -0.5648853,3.308503 -1.6882532,4.287591 0.4386262,1.107284 0.957236,2.174219 1.5523632,3.191021 1.392185,-0.09294 2.470626,-1.227024 2.470626,-2.645318 V 18.353415 c 0,-1.480439 -1.174168,-2.654102 -2.654617,-2.654102 z"
         style="opacity:1;fill:white;fill-opacity:1;stroke:none;stroke-width:1.14003;stroke-linecap:round;stroke-linejoin:round;stroke-miterlimit:4;stroke-dasharray:none;stroke-opacity:1"
         id="path6006" />
      <circle
         cy="23.199165"
         cx="30.599165"
         style="opacity:1;fill:white;fill-opacity:1;stroke:none;stroke-width:1.14003;stroke-linecap:round;stroke-linejoin:round;stroke-miterlimit:4;stroke-dasharray:none;stroke-opacity:1"
         r="0"
         id="circle6008" />
      <path
         d="m -2.7888626,15.699313 c -1.4804364,0 -2.6546175,1.173663 -2.6546175,2.654102 v 14.007927 c 0,1.572533 5.292e-4,2.24123 0.00212,2.654105 H 10.208836 c 1.480449,-3e-6 2.654617,-1.173666 2.654617,-2.654105 V 18.353415 c 0,-1.480439 -1.174168,-2.654102 -2.654617,-2.654102 z m -0.033589,2.838585 h 4.4281539 v 8.02845 c 0,0.885278 0.1889072,1.536687 0.566891,1.953887 0.4049792,0.447726 0.967269,0.671277 1.6872346,0.671277 0.7109672,0 1.2688173,-0.223551 1.6737992,-0.671277 0.3779837,-0.4172 0.5674201,-1.068609 0.5674201,-1.953887 v -8.02845 h 4.4276168 v 8.99015 c 0,2.635477 -1.1023864,4.3854 -3.3072916,5.250325 -0.9179454,0.356145 -2.0386066,0.534334 -3.3615445,0.534334 -2.6008805,0 -4.46829646,-0.722376 -5.6022424,-2.16731 -0.7199683,-0.915803 -1.0800371,-2.121538 -1.0800371,-3.617349 z"
         style="opacity:1;fill:white;fill-opacity:1;stroke:none;stroke-width:1.14003;stroke-linecap:round;stroke-linejoin:round;stroke-miterlimit:4;stroke-dasharray:none;stroke-opacity:1"
         id="path6010" />
      <circle
         r="0"
         style="opacity:1;fill:white;fill-opacity:1;stroke:white;stroke-width:1.14003;stroke-linecap:round;stroke-linejoin:round;stroke-miterlimit:4;stroke-dasharray:none;stroke-opacity:1"
         cx="30.599165"
         cy="23.199165"
         id="circle6012" />
      <circle
         cy="23.199165"
         cx="30.599165"
         style="opacity:1;fill:white;fill-opacity:1;stroke:white;stroke-width:1.14003;stroke-linecap:round;stroke-linejoin:round;stroke-miterlimit:4;stroke-dasharray:none;stroke-opacity:1"
         r="0"
         id="circle6014" />
    </g>
    <circle
       r="0"
       style="fill:white;fill-opacity:0.98452;stroke:none;stroke-width:1.14003;stroke-linecap:round;stroke-linejoin:round;stroke-miterlimit:4;stroke-dasharray:none;stroke-opacity:1"
       cx="289.98792"
       cy="271.81598"
       id="circle6018" />
    <circle
       cy="271.81598"
       cx="289.98792"
       style="fill:white;fill-opacity:0.98452;stroke:none;stroke-width:1.14003;stroke-linecap:round;stroke-linejoin:round;stroke-miterlimit:4;stroke-dasharray:none;stroke-opacity:1"
       r="0"
       id="circle6020" />
    <circle
       r="0"
       style="fill:white;fill-opacity:0.98452;stroke:white;stroke-width:1.14003;stroke-linecap:round;stroke-linejoin:round;stroke-miterlimit:4;stroke-dasharray:none;stroke-opacity:1"
       cx="289.98792"
       cy="271.81598"
       id="circle6022" />
    <circle
       cy="271.81598"
       cx="289.98792"
       style="fill:white;fill-opacity:0.98452;stroke:white;stroke-width:1.14003;stroke-linecap:round;stroke-linejoin:round;stroke-miterlimit:4;stroke-dasharray:none;stroke-opacity:1"
       r="0"
       id="circle6024" />
  </g>
</svg>
