<?xml version="1.0" encoding="UTF-8" standalone="no"?>
<svg
   width="69.154045"
   height="113.97843"
   viewBox="0 0 18.297007 30.156794"
   version="1.1"
   id="svg8"
   xmlns:xlink="http://www.w3.org/1999/xlink"
   xmlns="http://www.w3.org/2000/svg"
   xmlns:svg="http://www.w3.org/2000/svg"
   xmlns:rdf="http://www.w3.org/1999/02/22-rdf-syntax-ns#"
   xmlns:cc="http://creativecommons.org/ns#"
   xmlns:dc="http://purl.org/dc/elements/1.1/">
  <defs
     id="defs2">
    <linearGradient
       id="linearGradient64600">
      <stop
         style="stop-color:black;stop-opacity:1;"
         offset="0"
         id="stop64596" />
      <stop
         style="stop-color:#483530;stop-opacity:1"
         offset="1"
         id="stop64598" />
    </linearGradient>
    <linearGradient
       id="linearGradient64526">
      <stop
         style="stop-color:black;stop-opacity:1;"
         offset="0"
         id="stop64522" />
      <stop
         style="stop-color:#483530;stop-opacity:1"
         offset="1"
         id="stop64524" />
    </linearGradient>
    <linearGradient
       xlink:href="#linearGradient64526"
       id="linearGradient64528"
       x1="33.514515"
       y1="37.570637"
       x2="33.517937"
       y2="38.790218"
       gradientUnits="userSpaceOnUse"
       gradientTransform="matrix(0.96741994,0,0,1.0098021,-13.767619,-11.348507)" />
    <linearGradient
       xlink:href="#linearGradient64600"
       id="linearGradient64530"
       x1="32.952633"
       y1="37.048306"
       x2="32.937756"
       y2="38.267899"
       gradientUnits="userSpaceOnUse"
       gradientTransform="translate(-14.985609,-10.886463)" />
    <clipPath
       clipPathUnits="userSpaceOnUse"
       id="clipPath132180">
      <path
         id="path132182"
         style="fill:black;stroke:none;stroke-width:0.396872;stroke-linecap:round;stroke-linejoin:round"
         d="m 38.705748,26.261299 c 0.06822,0.300762 -0.508865,0.643516 -1.427877,0.845319 -0.782196,0.171757 -1.185823,0.04434 -1.254048,-0.256336 -0.06822,-0.30076 0.487934,-0.69116 1.266944,-0.872715 0.779007,-0.181562 1.346753,-0.01704 1.414981,0.283732 z" />
    </clipPath>
    <clipPath
       clipPathUnits="userSpaceOnUse"
       id="clipPath132186">
      <path
         id="path132188"
         style="fill:black;stroke:none;stroke-width:0.396878;stroke-linecap:round;stroke-linejoin:round"
         d="m 43.420895,26.466686 c -0.05714,0.263615 -0.640937,0.375542 -1.388806,0.288711 -0.747866,-0.08683 -1.223457,-0.399266 -1.2046,-0.666674 0.01974,-0.278862 0.528659,-0.531502 1.458682,-0.370533 0.738603,0.127829 1.19185,0.484879 1.134724,0.748496 z" />
    </clipPath>
  </defs>
  <metadata
     id="metadata5">
    <rdf:RDF>
      <cc:Work
         rdf:about="">
        <dc:format>image/svg+xml</dc:format>
        <dc:type
           rdf:resource="http://purl.org/dc/dcmitype/StillImage" />
      </cc:Work>
    </rdf:RDF>
  </metadata>
  <g
     id="layer1"
     transform="translate(-15.086401,-10.567138)">
    <g
       id="g8844"
       transform="translate(0.26458333,0.25671253)">
      <path
         d="m 23.042745,33.437717 -0.171309,3.866443 c -2.148564,-0.919319 -5.074688,0.07375 -3.665998,2.487972 1.775162,0.722763 4.174019,0.584312 5.653176,-0.504319 l 0.513925,-5.917337 z"
         id="path6696"
         style="fill:#ccc"
         class="UnoptimicedTransforms" />
      <path
         d="m 21.896732,32.958615 c -0.609837,0.371375 -1.281369,0.767994 -1.966859,0.61525 -1.581325,-0.352358 -2.655227,-3.612055 -4.292544,-2.693077 -1.74874,0.981517 1.864172,5.842696 7.096223,3.155956 z"
         id="path6702"
         style="fill:#ccc"
         class="UnoptimicedTransforms" />
      <path
         style="font-variation-settings:normal;opacity:1;fill:black;fill-opacity:1;fill-rule:nonzero;stroke:none;stroke-width:0.529167;stroke-linecap:round;stroke-linejoin:miter;stroke-miterlimit:4;stroke-dasharray:none;stroke-dashoffset:0;stroke-opacity:1;stop-color:black;stop-opacity:1"
         d="m 21.896732,32.958615 c -0.08392,-5.26e-4 -0.297091,-0.0578 -0.503369,-0.0089 -0.160356,0.03799 -0.343065,0.12853 -0.563769,0.220865 -0.134646,0.05633 -0.277232,0.110143 -0.424616,0.143903 -0.134795,0.03088 -0.276023,0.04562 -0.423877,0.02951 -0.164997,-0.02844 -0.332934,-0.09671 -0.506184,-0.201416 -0.174383,-0.105389 -0.347432,-0.243608 -0.520136,-0.402902 -0.349685,-0.322533 -0.715769,-0.752196 -1.031918,-1.095687 5.4e-5,5.9e-5 -0.01405,-0.01525 -0.014,-0.01519 -0.152794,-0.165605 -0.326565,-0.348299 -0.506281,-0.509705 -0.167673,-0.150589 -0.352689,-0.294023 -0.552335,-0.399109 -0.09537,-0.0502 -0.195544,-0.09246 -0.300507,-0.122734 -0.102528,-0.02957 -0.209589,-0.0477 -0.321038,-0.05064 -0.109472,-0.0029 -0.221868,0.0089 -0.336957,0.03793 -0.113461,0.02861 -0.228179,0.07359 -0.344205,0.136303 -0.130266,0.07072 -0.239865,0.16165 -0.326659,0.270991 -0.08642,0.108867 -0.147631,0.232728 -0.185128,0.366612 -0.03741,0.133571 -0.0508,0.27553 -0.0436,0.421286 0.0072,0.146423 0.03526,0.297314 0.08114,0.449151 0.09333,0.308857 0.261282,0.62455 0.486021,0.924231 0.23481,0.31311 0.530392,0.607431 0.87071,0.865107 0.791005,0.598922 1.743443,0.945304 2.721111,1.026499 1.836343,0.152507 3.440204,-0.729542 3.627447,-0.920256 0.06659,-0.06783 -0.03753,-0.07308 -0.04503,-0.08769 -0.0077,-0.01498 0.04782,-0.101475 -0.04503,-0.08769 -0.259029,0.03845 -1.811983,0.797524 -3.496498,0.636496 -0.895771,-0.08563 -1.762019,-0.399221 -2.486759,-0.935016 -0.311848,-0.230547 -0.581418,-0.491451 -0.795411,-0.765417 -0.20545,-0.263031 -0.354043,-0.53108 -0.437933,-0.782358 -0.04108,-0.123044 -0.06599,-0.240146 -0.07511,-0.34897 -0.0091,-0.10821 -0.0024,-0.207096 0.01858,-0.295412 0.02092,-0.0879 0.05633,-0.166504 0.10645,-0.235187 0.05032,-0.06897 0.117596,-0.130836 0.205281,-0.182427 0.08973,-0.05276 0.175305,-0.08971 0.257108,-0.113836 0.08283,-0.02443 0.162977,-0.03607 0.241081,-0.03709 0.07969,-0.001 0.158493,0.009 0.236866,0.02869 0.08048,0.02026 0.160581,0.05081 0.240398,0.0902 0.168677,0.08324 0.333183,0.204573 0.491028,0.344495 0.168919,0.149738 0.332136,0.322656 0.479376,0.488866 3.3e-5,3.7e-5 0.01333,0.01507 0.01336,0.01511 0.311884,0.353404 0.640315,0.778747 1.003464,1.15354 0.172907,0.178452 0.356644,0.347108 0.552426,0.485299 0.195228,0.137798 0.405941,0.248086 0.636422,0.307735 0.202137,0.06209 0.403339,0.08144 0.597632,0.07058 0.210209,-0.01176 0.407191,-0.05869 0.577474,-0.119319 0.26932,-0.09589 0.483857,-0.22945 0.600503,-0.344959 0.15905,-0.1575 0.205821,-0.379382 0.242478,-0.451449 z"
         id="path18445"
         class="UnoptimicedTransforms" />
      <path
         d="M 27.507253,32.902355 27.20378,37.08116 c 2.419033,-1.041587 4.655701,-0.768278 3.570235,2.07787 -1.417288,0.896627 -4.0683,0.934051 -5.782651,0.106634 l 0.29466,-6.011702 z"
         id="path6690"
         style="fill:#ccc"
         class="UnoptimicedTransforms" />
      <path
         style="font-variation-settings:normal;opacity:1;fill:black;fill-opacity:1;fill-rule:nonzero;stroke:none;stroke-width:0.529167;stroke-linecap:round;stroke-linejoin:miter;stroke-miterlimit:4;stroke-dasharray:none;stroke-dashoffset:0;stroke-opacity:1;stop-color:black;stop-opacity:1"
         d="m 23.042745,33.437717 c -0.0221,0.0204 -0.09288,0.04334 -0.132623,0.122425 -0.163979,0.32629 -0.171424,1.996603 -0.196914,3.510458 -0.524866,-0.182639 -1.053366,-0.252866 -1.519509,-0.249757 -0.249067,0.0017 -0.479639,0.02401 -0.688124,0.05992 -0.04772,0.0082 -0.09485,0.0173 -0.141346,0.02723 -0.266493,0.05691 -0.513414,0.141949 -0.731781,0.253689 -0.223591,0.114412 -0.419594,0.258011 -0.576746,0.430903 -0.160206,0.176252 -0.27977,0.38273 -0.346097,0.617809 -0.06693,0.237212 -0.07832,0.498855 -0.02717,0.781075 0.05106,0.281774 0.164322,0.583611 0.346425,0.903693 0.01099,0.01931 0.02213,0.03852 0.03344,0.05765 0.02195,0.0097 0.04397,0.01926 0.06605,0.02867 0.795104,0.338824 1.74893,0.51898 2.730909,0.480653 0.09869,-0.0039 0.19936,-0.0099 0.301683,-0.01855 0.485656,-0.04084 1.002271,-0.137881 1.508016,-0.313588 0.468382,-0.162726 0.914731,-0.388716 1.305174,-0.685232 0.02441,-0.01854 0.04861,-0.03736 0.07259,-0.05646 0,0 0.006,-0.08363 0.006,-0.08363 0.141762,-1.966223 0.267915,-3.93151 0.305323,-4.844682 0.02175,-0.531008 0.01205,-0.907931 0.01446,-1.089517 -0.02893,0.179283 -0.103473,0.548889 -0.173592,1.075697 -0.118698,0.891776 -0.328448,2.802571 -0.525112,4.732752 -0.34444,0.233348 -0.732365,0.413843 -1.14095,0.546115 -0.47118,0.152536 -0.952816,0.235627 -1.407765,0.269867 -0.09573,0.0072 -0.189924,0.01223 -0.282297,0.01532 -0.893332,0.02993 -1.763494,-0.110268 -2.497444,-0.383586 -0.148909,-0.25977 -0.240749,-0.496225 -0.287035,-0.709365 -0.04981,-0.229352 -0.0475,-0.434392 -0.0043,-0.616459 0.04283,-0.180558 0.127282,-0.344474 0.249897,-0.490234 0.120938,-0.143766 0.279792,-0.270672 0.472559,-0.376133 0.188176,-0.102948 0.407453,-0.184739 0.651018,-0.240828 0.0424,-0.0098 0.08551,-0.01874 0.12929,-0.02691 0.191401,-0.03572 0.405403,-0.05674 0.637711,-0.05642 0.498051,6.9e-4 1.068265,0.100449 1.613055,0.343156 0.0708,0.03154 0.140607,0.06526 0.209323,0.101118 0.0055,-0.08108 0.01109,-0.162153 0.01678,-0.24322 0.109775,-1.565754 0.271587,-3.383416 0.130364,-3.739956 -0.03259,-0.08229 -0.101063,-0.111395 -0.121276,-0.133674 z"
         id="path130958"
         class="UnoptimicedTransforms" />
      <path
         style="font-variation-settings:normal;opacity:1;fill:black;fill-opacity:1;fill-rule:nonzero;stroke:none;stroke-width:0.529167;stroke-linecap:round;stroke-linejoin:miter;stroke-miterlimit:4;stroke-dasharray:none;stroke-dashoffset:0;stroke-opacity:1;stop-color:black;stop-opacity:1"
         d="m 27.507253,32.902355 c -0.03488,0.12052 -0.145617,0.368058 -0.209285,0.723122 -0.116375,0.649009 -0.185378,2.058349 -0.262874,3.443433 0,0 -0.01599,0.283267 -0.01599,0.283267 0.08325,-0.03985 0.167116,-0.07841 0.251559,-0.115675 0.605995,-0.267398 1.182437,-0.441648 1.686175,-0.516563 0.265295,-0.03945 0.504605,-0.05054 0.71573,-0.0363 0.09202,0.0062 0.178085,0.01718 0.258245,0.03247 0.113734,0.02169 0.218433,0.05235 0.313218,0.09193 0.160735,0.06712 0.29154,0.15891 0.391971,0.27685 0.09883,0.116056 0.171059,0.261178 0.209452,0.441376 0.03844,0.180415 0.04337,0.398244 0.0041,0.658729 -0.03683,0.244431 -0.112202,0.523917 -0.232772,0.841109 -0.328922,0.190164 -0.723451,0.334863 -1.154699,0.434551 -0.467386,0.108041 -0.970282,0.161548 -1.471969,0.166582 -0.399901,0.004 -0.795418,-0.02274 -1.172544,-0.07546 -0.11881,-0.01661 -0.237012,-0.03613 -0.354139,-0.0586 -0.441766,-0.08474 -0.860258,-0.209855 -1.234231,-0.373102 0.05869,-1.33994 0.104731,-2.617399 0.110914,-3.588824 0.0059,-0.927156 -0.04509,-1.89774 -0.05411,-2.277288 -0.04609,0.376847 -0.191757,1.337791 -0.276554,2.261081 -0.09231,1.005069 -0.1741,2.343111 -0.249043,3.739302 0,0 -0.008,0.149115 -0.008,0.149115 0.04575,0.02423 0.09189,0.04771 0.138403,0.07043 0.447673,0.218647 0.954088,0.378379 1.483365,0.481244 0.125121,0.02432 0.251186,0.04539 0.377698,0.0633 0.401369,0.05682 0.821859,0.08212 1.246118,0.07205 0.531784,-0.01261 1.067362,-0.08084 1.56713,-0.210522 0.485465,-0.125971 0.937244,-0.31007 1.312863,-0.556514 0.01887,-0.01238 0.0376,-0.02495 0.0562,-0.03772 0.0073,-0.01909 0.01447,-0.03821 0.02157,-0.05737 0.136079,-0.367161 0.220733,-0.69792 0.257558,-0.993615 0.03682,-0.295661 0.02602,-0.557927 -0.03028,-0.786668 -0.05676,-0.230607 -0.159106,-0.424199 -0.30067,-0.58058 -0.142412,-0.157318 -0.320034,-0.272103 -0.520284,-0.351147 -0.117821,-0.04651 -0.243662,-0.08073 -0.375405,-0.104198 -0.09297,-0.01656 -0.190961,-0.02826 -0.293936,-0.03493 -0.235841,-0.01526 -0.496725,-0.004 -0.780031,0.03517 -0.463079,0.06404 -0.97762,0.20169 -1.515876,0.408751 0.116114,-1.290719 0.232957,-2.55728 0.212977,-3.17302 -0.0117,-0.360538 -0.08551,-0.621478 -0.102611,-0.745773 z"
         id="path129954"
         class="UnoptimicedTransforms" />
      <path
         style="font-variation-settings:normal;opacity:1;fill:#51132a;fill-opacity:1;stroke:black;stroke-width:0.529167;stroke-linecap:round;stroke-linejoin:miter;stroke-miterlimit:4;stroke-dasharray:none;stroke-dashoffset:0;stroke-opacity:1;stop-color:black;stop-opacity:1"
         d="m 32.365813,28.849024 c -0.148409,-1.500345 -2.88159,-1.425629 -3.396228,-0.411358 -0.15648,2.301934 2.769589,1.464363 3.396228,0.411358 z"
         id="path110725" />
      <path
         id="path107227"
         style="font-variation-settings:normal;opacity:1;fill:#d81b60;fill-opacity:1;stroke:black;stroke-width:0.529167;stroke-linecap:round;stroke-linejoin:miter;stroke-miterlimit:4;stroke-dasharray:none;stroke-dashoffset:0;stroke-opacity:1;stop-color:black;stop-opacity:1"
         d="m 26.889073,27.564931 -0.266134,1.539957 c 0.544125,0.634812 1.0458,1.35673 1.628324,1.983342 0.137056,-0.08434 0.274917,-0.174892 0.410311,-0.271818 0.565653,1.072399 2.943087,1.038298 3.675228,-1.356507 l -2.510958,0.118856 c -0.291324,-0.109247 -0.09956,-0.09718 -0.387533,-0.220872 -0.0315,0.04296 -0.06119,0.08498 -0.08888,0.127124 -0.68959,-0.531095 -1.80526,-1.36614 -2.460355,-1.920082 z" />
      <path
         style="font-variation-settings:normal;opacity:1;fill:#47249f;fill-opacity:1;stroke:black;stroke-width:0.396875;stroke-linecap:round;stroke-linejoin:miter;stroke-miterlimit:4;stroke-dasharray:none;stroke-dashoffset:0;stroke-opacity:1;stop-color:black;stop-opacity:1"
         d="m 21.798732,27.251345 c 0.227453,2.352728 -0.844832,4.132055 -1.791542,5.800578 3.137502,1.110661 6.532615,1.147508 9.366046,-0.451271 -0.558099,-1.98758 -1.982629,-3.654611 -2.863665,-5.177447"
         id="path47088" />
      <g
         id="g84517"
         transform="matrix(0.7847973,0,0,0.86962864,-7.055632,-4.976569)"
         style="stroke-width:1.21048">
        <path
           style="font-variation-settings:normal;opacity:1;fill:none;fill-opacity:1;stroke:#f6be1a;stroke-width:0.32027;stroke-linecap:round;stroke-linejoin:miter;stroke-miterlimit:4;stroke-dasharray:none;stroke-dashoffset:0;stroke-opacity:1;stop-color:black;stop-opacity:1"
           d="m 40.715171,40.821837 c 2.111816,-2.337552 4.927339,1.897618 0.511206,1.674217 l 0.885071,-1.194343 z"
           id="path82061" />
        <path
           style="font-variation-settings:normal;opacity:1;fill:none;fill-opacity:1;stroke:#f6be1a;stroke-width:0.32027;stroke-linecap:round;stroke-linejoin:miter;stroke-miterlimit:4;stroke-dasharray:none;stroke-dashoffset:0;stroke-opacity:1;stop-color:black;stop-opacity:1"
           d="m 39.718327,42.785408 -0.178318,-1.67715 1.682158,0.478384 z"
           id="path82210" />
      </g>
      <path
         style="font-variation-settings:normal;opacity:1;fill:#d81b60;fill-opacity:1;stroke:black;stroke-width:0.529167;stroke-linecap:round;stroke-linejoin:miter;stroke-miterlimit:4;stroke-dasharray:none;stroke-dashoffset:0;stroke-opacity:1;stop-color:black;stop-opacity:1"
         d="m 25.994648,27.362328 c 0.991058,1.977289 0.995848,4.286594 1.063835,6.390344 0.865007,-0.283237 1.80535,-0.648526 2.536835,-1.0307 -0.601533,-1.853968 -1.551376,-3.838337 -2.864168,-5.451262"
         id="path77672" />
      <path
         style="font-variation-settings:normal;opacity:1;fill:#d81b60;fill-opacity:1;stroke:black;stroke-width:0.529167;stroke-linecap:round;stroke-linejoin:miter;stroke-miterlimit:4;stroke-dasharray:none;stroke-dashoffset:0;stroke-opacity:1;stop-color:black;stop-opacity:1"
         d="m 23.430369,27.429379 c 0.713721,1.805878 1.181835,4.513303 0.920797,6.543154 -1.527156,0.04205 -3.105745,-0.42979 -4.514152,-0.72184 0.693102,-1.864124 1.881437,-3.57067 1.639469,-6.170591"
         id="path77504" />
      <path
         id="path87594"
         style="font-variation-settings:normal;opacity:1;fill:#f6be1a;fill-opacity:1;stroke:black;stroke-width:0.396875;stroke-linecap:round;stroke-linejoin:miter;stroke-miterlimit:4;stroke-dasharray:none;stroke-dashoffset:0;stroke-opacity:1;stop-color:black;stop-opacity:1"
         d="m 20.065493,32.67678 c -0.08004,0.190344 -0.156819,0.381577 -0.22841,0.574125 1.408406,0.29205 2.986781,0.763452 4.513937,0.721402 0.02922,-0.227192 0.04883,-0.462909 0.06046,-0.704866 -1.475031,-0.101261 -2.84907,-0.463743 -4.345987,-0.590661 z" />
      <path
         d="m 22.09351,28.837253 c -3.317316,1.369555 -3.051303,3.010957 0.06408,3.921239 0.93155,0.49834 1.830627,-0.864981 1.631274,-1.761403 C 21.252979,30.55294 21.428669,30.05033 23.07494,29.124148 Z"
         id="path443"
         style="fill:#d81b60"
         class="UnoptimicedTransforms" />
      <path
         style="font-variation-settings:normal;opacity:1;fill:black;fill-opacity:1;fill-rule:nonzero;stroke:none;stroke-width:0.396875;stroke-linecap:round;stroke-linejoin:miter;stroke-miterlimit:4;stroke-dasharray:none;stroke-dashoffset:0;stroke-opacity:1;stop-color:black;stop-opacity:1"
         d="m 22.09351,28.837253 c -0.199709,0.0609 -0.671968,0.175843 -1.145716,0.407569 -0.03574,0.01748 -0.07169,0.03571 -0.107713,0.05471 -0.214992,0.113414 -0.468801,0.271345 -0.696118,0.467334 -0.190749,0.164461 -0.367199,0.359408 -0.48635,0.582383 -0.102616,0.192031 -0.16281,0.405405 -0.151198,0.633123 0.01061,0.208052 0.08057,0.414375 0.2119,0.612902 0.123284,0.186369 0.298317,0.362694 0.523617,0.528357 0.218102,0.160371 0.484032,0.311198 0.796823,0.451122 0.304348,0.136148 0.652541,0.261733 1.042771,0.375372 0.135001,0.06773 0.27155,0.104534 0.406407,0.113796 0.144963,0.01 0.282623,-0.01225 0.409289,-0.05592 0.132206,-0.04558 0.251788,-0.114266 0.357175,-0.193862 0.113837,-0.08598 0.212894,-0.185982 0.297134,-0.288437 0.172832,-0.210205 0.314754,-0.469742 0.400564,-0.746724 0.042,-0.135567 0.07058,-0.275558 0.08207,-0.415202 0.01154,-0.140222 0.0059,-0.280934 -0.02128,-0.416511 a 0.23280919,0.22191091 0.07119984 0 0 -0.184427,-0.176232 c -0.316852,-0.0585 -0.584349,-0.116554 -0.808853,-0.17441 -0.232511,-0.05992 -0.41416,-0.118416 -0.554605,-0.17494 -0.149405,-0.06013 -0.242268,-0.114092 -0.299116,-0.158131 -0.02924,-0.02265 -0.04616,-0.04053 -0.0562,-0.05258 -0.01048,-0.01259 -0.01363,-0.0179 -0.01667,-0.02157 -0.0032,-0.0039 -0.0067,-0.0075 -0.0079,-0.01888 -0.0014,-0.01269 7.69e-4,-0.0323 0.01002,-0.05966 0.0022,-0.0065 0.0048,-0.01334 0.0077,-0.02047 0.01008,-0.02454 0.0242,-0.05255 0.04326,-0.08414 0.02549,-0.04225 0.05825,-0.08835 0.09828,-0.137952 0.08913,-0.11045 0.205833,-0.22782 0.332754,-0.342535 0.179499,-0.162235 0.375241,-0.315071 0.497827,-0.401608 -0.140124,0.06094 -0.365798,0.149841 -0.594162,0.254744 -0.156916,0.07208 -0.318693,0.153685 -0.454415,0.242956 -0.0619,0.04072 -0.120225,0.08419 -0.171909,0.130894 -0.03875,0.03501 -0.07453,0.07252 -0.105594,0.112897 -0.0091,0.01186 -0.018,0.02414 -0.02653,0.03683 -0.03465,0.05156 -0.06511,0.112198 -0.08231,0.181238 -0.01614,0.06478 -0.02022,0.135739 -0.0059,0.209651 0.01351,0.0695 0.04209,0.135175 0.08341,0.195664 0.03897,0.05704 0.08835,0.108211 0.145531,0.154425 0.107068,0.08654 0.248699,0.16153 0.423852,0.229483 0.16737,0.06493 0.371986,0.125962 0.618612,0.184597 0.199048,0.04732 0.426347,0.09329 0.684608,0.138503 0.0042,0.04529 0.0056,0.0925 0.0041,0.141356 -0.0032,0.1048 -0.01948,0.214515 -0.0482,0.324758 -0.05909,0.226823 -0.167059,0.442708 -0.302961,0.613798 -0.06591,0.08297 -0.141916,0.159747 -0.226155,0.222973 -0.07801,0.05855 -0.161161,0.104025 -0.247151,0.132214 -0.08168,0.02678 -0.165635,0.03789 -0.251094,0.03025 -0.08318,-0.0074 -0.171549,-0.03298 -0.264297,-0.08386 a 0.1209298,0.21075645 82.369509 0 0 -0.03925,-0.01603 c -0.382398,-0.112898 -0.717543,-0.235999 -1.00527,-0.366595 -0.291517,-0.132316 -0.529659,-0.270192 -0.71826,-0.409791 -0.194889,-0.144254 -0.332029,-0.286722 -0.422804,-0.422628 -0.09519,-0.142513 -0.139422,-0.277577 -0.148658,-0.404647 -0.01018,-0.14006 0.02132,-0.282255 0.09131,-0.427483 0.08272,-0.171663 0.215046,-0.338773 0.376426,-0.497773 0.191245,-0.188426 0.410577,-0.353101 0.601834,-0.488025 0.03168,-0.02235 0.06325,-0.04441 0.09458,-0.06612 0.406047,-0.281426 0.832667,-0.54767 1.0092,-0.641165 z"
         id="path99280"
         class="UnoptimicedTransforms" />
      <path
         d="m 27.45452,26.479582 c -0.796753,1.637133 -0.975875,2.066719 -2.111717,3.404933 -0.735095,-0.527729 -1.419368,-1.031819 -2.210753,-1.930959 l -1.897025,1.501644 -1.044586,-1.074155 -1.797463,1.195892 1.085637,-2.772319 1.817365,1.036462 1.305481,-1.124868 1.243226,0.467595 z"
         id="path545"
         style="fill:#00897b"
         class="UnoptimicedTransforms" />
      <path
         style="font-variation-settings:normal;opacity:1;fill:black;fill-opacity:1;fill-rule:nonzero;stroke:none;stroke-width:0.529167;stroke-linecap:round;stroke-linejoin:miter;stroke-miterlimit:4;stroke-dasharray:none;stroke-dashoffset:0;stroke-opacity:1;stop-color:black;stop-opacity:1"
         d="m 27.375914,26.441326 c -0.05879,0.121414 -0.242079,0.51245 -0.386205,0.797454 -0.03829,0.07572 -0.0792,0.154853 -0.121703,0.234982 -0.127803,0.240962 -0.274296,0.499756 -0.443177,0.760047 -0.138188,0.212984 -0.295367,0.433921 -0.502713,0.696734 -0.162775,0.206319 -0.354454,0.436139 -0.603293,0.723476 -0.02723,-0.02062 -0.05045,-0.0382 -0.05899,-0.04467 -0.240334,-0.181863 -0.558155,-0.423882 -0.876782,-0.699072 -0.323128,-0.279076 -0.687283,-0.625208 -1.09451,-1.094457 -0.04274,-0.04925 -0.08508,-0.09885 -0.127023,-0.148781 0,0 -0.158866,0.123058 -0.158866,0.123058 -0.564563,0.437604 -1.16883,0.909106 -1.746891,1.363223 -0.345187,-0.357201 -0.664829,-0.683075 -0.908711,-0.924575 -0.04367,-0.04324 -0.08749,-0.08633 -0.131454,-0.129271 -0.04878,0.03315 -0.0975,0.06638 -0.146171,0.09969 -0.02148,0.0147 -0.04257,0.02916 -0.06327,0.04337 -0.596376,0.409442 -0.819546,0.594045 -1.315782,0.949905 0.07351,-0.198778 0.429693,-1.129935 0.849256,-2.218512 0.530054,0.297335 1.109366,0.623701 1.703765,0.959356 0,0 0.06571,0.03711 0.06571,0.03711 0,0 0.05616,-0.0489 0.05616,-0.0489 0.415702,-0.36194 0.842395,-0.732596 1.256746,-1.092135 0.421426,0.156396 0.826952,0.307237 1.189695,0.442139 -1e-6,0 0.0251,0.0093 0.0251,0.0093 -1.1e-5,2e-6 0.02583,-0.0051 0.02581,-0.0051 1.562477,-0.306985 2.851057,-0.560212 3.608636,-0.710372 z m 0.06187,-0.04755 c -0.75421,0.144781 -2.033279,0.392471 -3.584725,0.692982 -0.371329,-0.141232 -0.786523,-0.299129 -1.216771,-0.463142 0,0 -0.0545,-0.02078 -0.0545,-0.02078 0,0 -0.0449,0.03843 -0.0449,0.03843 -0.411697,0.352284 -0.836757,0.71562 -1.252809,1.070466 -0.61351,-0.353411 -1.208739,-0.697146 -1.747085,-1.009475 0,0 -0.117404,-0.06814 -0.117404,-0.06814 0,0 -0.0507,0.127531 -0.0507,0.127531 -0.452552,1.138179 -0.842229,2.111083 -1.108846,2.76323 -0.05711,0.139695 -0.11454,0.279259 -0.172286,0.418693 0.127595,-0.08337 0.255696,-0.165967 0.384297,-0.247779 0.814119,-0.517918 1.032362,-0.612665 1.774946,-1.091262 0.0211,-0.0136 0.04259,-0.02747 0.06445,-0.04161 l -0.277625,-0.02958 c 0.26608,0.284143 0.637935,0.668734 1.040245,1.078376 0,0 0.142654,0.145005 0.142654,0.145005 0,0 0.15765,-0.125492 0.15765,-0.125492 0.571269,-0.455045 1.171648,-0.936589 1.735616,-1.391874 0.375835,0.40669 0.717158,0.715417 1.024027,0.966992 0.338755,0.277716 0.670148,0.512563 0.920852,0.686138 0.06341,0.0439 0.12664,0.08713 0.18918,0.129581 0.04362,0.02961 0.08731,0.05911 0.131067,0.08851 0.03238,-0.03873 0.06464,-0.07756 0.09679,-0.11649 0.294015,-0.356043 0.509969,-0.637809 0.685775,-0.888323 0.197568,-0.281523 0.343593,-0.522873 0.46913,-0.751293 0.150883,-0.274541 0.28596,-0.557555 0.401506,-0.800076 0.0403,-0.08458 0.07674,-0.161258 0.114587,-0.240154 0.155121,-0.323351 0.316367,-0.645431 0.390222,-0.79641 z"
         id="path47682"
         class="UnoptimicedTransforms" />
      <path
         d="m 21.70618,16.776685 0.277048,-2.12959 -2.220922,0.908547 c 0.149825,-1.009034 0.363491,-1.929959 -0.740027,-4.110291 l 2.137319,1.16663 c 0.803224,0.488824 2.171395,0.428561 2.893753,-0.195144 l 1.728797,-1.603335 c -0.07343,1.263513 -0.113982,2.644198 0.489582,4.274844 l -2.416902,-0.586745 0.61887,1.817054 z"
         id="path6392"
         style="fill:white"
         class="UnoptimicedTransforms" />
      <path
         style="font-variation-settings:normal;opacity:1;fill:black;fill-opacity:1;fill-rule:nonzero;stroke:none;stroke-width:0.529168;stroke-linecap:round;stroke-linejoin:miter;stroke-miterlimit:4;stroke-dasharray:none;stroke-dashoffset:0;stroke-opacity:1;stop-color:black;stop-opacity:1"
         d="m 21.70618,16.776685 c 0.02446,-0.0558 0.0959,-0.165795 0.146781,-0.334784 0.09995,-0.331967 0.211572,-1.009 0.326133,-1.769325 0.01667,-0.110631 0.03314,-0.221293 0.04941,-0.331984 -0.106748,0.04107 -0.213436,0.0823 -0.320062,0.123692 -0.333394,0.129408 -0.681144,0.266155 -1.024488,0.400606 -0.263519,0.103192 -0.547282,0.217089 -0.846742,0.339212 0.01755,-0.126739 0.03368,-0.257626 0.04507,-0.390013 0.02305,-0.267867 0.02911,-0.561174 -0.0079,-0.896546 -0.03593,-0.32571 -0.112415,-0.690931 -0.25288,-1.11604 -0.08948,-0.270811 -0.204978,-0.566215 -0.35279,-0.89235 0.5386,0.286002 1.080462,0.574134 1.606878,0.856703 0.216539,0.13033 0.473018,0.22264 0.737871,0.277826 0.272828,0.05685 0.557456,0.075 0.833548,0.05859 0.0082,-4.88e-4 0.01641,-0.001 0.0246,-0.0016 0.269333,-0.01804 0.540916,-0.06971 0.795378,-0.158659 0.256909,-0.0898 0.499255,-0.21867 0.701868,-0.391426 0.458062,-0.417661 0.921679,-0.836849 1.3796,-1.250519 -0.0246,0.49292 -0.03271,0.997666 0.0065,1.530449 0.04663,0.632962 0.158373,1.273412 0.367378,1.938326 -0.22317,-0.05402 -0.438611,-0.105315 -0.644914,-0.153351 -0.453174,-0.105518 -0.92375,-0.219841 -1.371073,-0.326381 -0.129132,-0.03076 -0.258305,-0.06133 -0.387521,-0.09173 0.04272,0.124986 0.08572,0.249874 0.129004,0.374662 0.228861,0.659766 0.441798,1.247825 0.603583,1.506464 0.08284,0.132442 0.185191,0.20009 0.222229,0.240108 0.0049,-0.05431 0.04469,-0.17036 0.02947,-0.325835 -0.02393,-0.244549 -0.152023,-0.678632 -0.316655,-1.184348 0.327553,0.08051 0.661217,0.162384 0.984843,0.244177 0.326591,0.08254 0.677502,0.168352 1.046704,0.256756 0.142562,0.03414 0.285184,0.06802 0.427865,0.101652 -0.05694,-0.132536 -0.110583,-0.266469 -0.160864,-0.401674 -0.284762,-0.765724 -0.432339,-1.492121 -0.493945,-2.213447 -0.05825,-0.681989 -0.03731,-1.320575 -0.0048,-1.970571 0.0086,-0.171671 0.01786,-0.343305 0.02786,-0.5149 0,0 -0.371036,0.353111 -0.371036,0.353111 -0.563427,0.536387 -1.141927,1.087935 -1.709952,1.623654 -0.156545,0.137212 -0.357432,0.248865 -0.581333,0.329101 -0.221317,0.07931 -0.461675,0.126705 -0.703249,0.143196 -0.0073,5e-4 -0.01466,9.72e-4 -0.022,0.0014 -0.247651,0.01498 -0.501508,-0.0022 -0.741998,-0.05378 -0.234035,-0.05022 -0.451456,-0.132251 -0.633838,-0.244933 -0.705511,-0.39169 -1.427169,-0.797098 -2.132486,-1.192697 0,0 -0.59247,-0.332153 -0.59247,-0.332153 0.1106,0.196959 0.216555,0.396491 0.317779,0.598429 0.272106,0.542842 0.458253,0.999816 0.583971,1.393723 0.128044,0.401195 0.193716,0.738042 0.222664,1.032394 0.02973,0.302306 0.02132,0.566801 -0.0023,0.812652 -0.02454,0.25498 -0.06699,0.502038 -0.10411,0.748613 -0.01907,0.126711 -0.03684,0.253613 -0.05331,0.380688 0.118588,-0.04772 0.237101,-0.09563 0.355538,-0.143723 0.43371,-0.176123 0.838356,-0.343379 1.200521,-0.49795 0.234734,-0.100183 0.471746,-0.201062 0.704356,-0.300554 -0.06526,0.623036 -0.110829,1.159705 -0.100904,1.45384 0.006,0.176384 0.04687,0.300997 0.05624,0.361196 z"
         id="path17026"
         class="UnoptimicedTransforms" />
      <path
         d="m 18.306765,24.74445 c -1.442751,-2.302718 -3.297134,-5.586764 -3.218695,-8.695745 3.048219,-0.56223 6.306286,0.246485 8.234333,1.289398 z"
         id="path6386"
         style="fill:#ccc"
         class="UnoptimicedTransforms" />
      <path
         style="font-variation-settings:normal;opacity:1;fill:black;fill-opacity:1;fill-rule:nonzero;stroke:none;stroke-width:0.529167;stroke-linecap:round;stroke-linejoin:miter;stroke-miterlimit:4;stroke-dasharray:none;stroke-dashoffset:0;stroke-opacity:1;stop-color:black;stop-opacity:1"
         d="m 18.306765,24.74445 c -0.09861,-0.195108 -0.304381,-0.64521 -0.611845,-1.238366 -0.297276,-0.5735 -0.890779,-1.690038 -1.373243,-2.88961 -0.292849,-0.728126 -0.550642,-1.495555 -0.727057,-2.278141 -0.164796,-0.731041 -0.245671,-1.418123 -0.245277,-2.065566 1.365637,-0.216626 2.812557,-0.166595 4.228139,0.08064 0.79184,0.138296 1.466784,0.319176 1.999894,0.479389 0.31398,0.09436 0.585476,0.183672 0.785379,0.246428 0.309111,0.09704 0.650538,0.161842 0.959648,0.258881 C 23.2007,17.238357 22.948362,16.986529 22.501356,16.749179 22.306471,16.6457 22.045879,16.525643 21.724722,16.40239 21.187823,16.196339 20.491172,15.985149 19.673121,15.829546 18.13744,15.53744 16.533226,15.507248 15.040079,15.78851 c -0.06979,0.01315 -0.139451,0.02699 -0.208967,0.04153 -0.0035,0.07063 -0.006,0.141299 -0.0075,0.211997 -0.01637,0.762129 0.08201,1.566586 0.291834,2.410027 0.201678,0.810675 0.491381,1.597215 0.81686,2.329318 0.546464,1.229167 1.18686,2.28446 1.555252,2.8461 0.361223,0.550709 0.696614,0.956137 0.819248,1.116972 z"
         id="path1531"
         class="UnoptimicedTransforms" />
      <path
         d="m 25.151389,18.153329 c 0.205229,-1.77548 1.565256,-3.968305 3.517534,-5.551126 2.462626,4.344708 1.526111,9.768259 0.130026,12.521006 z"
         id="path6380"
         style="fill:#ccc"
         class="UnoptimicedTransforms" />
      <path
         style="font-variation-settings:normal;opacity:1;fill:black;fill-opacity:1;fill-rule:nonzero;stroke:none;stroke-width:0.529167;stroke-linecap:round;stroke-linejoin:miter;stroke-miterlimit:4;stroke-dasharray:none;stroke-dashoffset:0;stroke-opacity:1;stop-color:black;stop-opacity:1"
         d="m 25.151389,18.153329 c 0.0257,-0.142965 0.08977,-0.447727 0.234187,-0.858034 0.04981,-0.141527 0.116306,-0.311688 0.204112,-0.505937 0.180521,-0.399355 0.438974,-0.873503 0.802636,-1.397352 0.620076,-0.893208 1.377408,-1.69236 2.197431,-2.382232 0.499972,0.949614 0.86044,1.970447 1.089933,3.044499 0.250894,1.174204 0.327769,2.330656 0.299261,3.39634 -0.03376,1.262112 -0.213381,2.343398 -0.390402,3.133884 -0.01265,0.05648 -0.02531,0.111588 -0.03792,0.16528 -0.282673,1.202932 -0.59375,2.012488 -0.751674,2.373432 0.195339,-0.336248 0.631314,-1.105291 0.99188,-2.309238 0.01609,-0.05373 0.03226,-0.108922 0.04845,-0.165546 0.226591,-0.792526 0.462564,-1.885835 0.543677,-3.179654 0.06839,-1.090857 0.0239,-2.289504 -0.213676,-3.514187 -0.238716,-1.230577 -0.656718,-2.406061 -1.270177,-3.482848 -0.0508,-0.08917 -0.102904,-0.177594 -0.156289,-0.265242 -0.08122,0.06206 -0.161402,0.125468 -0.24052,0.190187 -0.94141,0.770087 -1.780151,1.763656 -2.384593,2.822351 -0.3267,0.572223 -0.540646,1.085065 -0.681298,1.510649 -0.06844,0.207087 -0.117376,0.386847 -0.15347,0.535195 -0.104509,0.429537 -0.124035,0.744997 -0.131544,0.888453 z"
         id="path1815"
         class="UnoptimicedTransforms" />
      <path
         style="font-variation-settings:normal;opacity:1;fill:black;fill-opacity:1;fill-rule:nonzero;stroke:none;stroke-width:0.264583;stroke-linecap:round;stroke-linejoin:miter;stroke-miterlimit:4;stroke-dasharray:none;stroke-dashoffset:0;stroke-opacity:1;stop-color:black;stop-opacity:1"
         d="m 14.961726,24.856278 c 0.326267,-0.07009 0.960004,-0.190601 1.623625,-0.186029 0.132751,9.14e-4 0.252008,0.0065 0.359264,0.01445 0.291674,0.0216 0.576089,0.07096 0.847432,0.149248 -0.310254,0.105653 -0.622026,0.230388 -0.923495,0.380968 -0.500009,0.249749 -0.953001,0.573406 -1.215419,0.757581 0.215369,-0.102597 0.878102,-0.370364 1.31236,-0.538784 0.446812,-0.173288 0.850671,-0.329088 1.284777,-0.467793 0.111204,-0.03553 0.222935,-0.06939 0.335155,-0.101567 -0.105548,-0.05524 -0.214087,-0.104568 -0.325114,-0.147752 -0.419518,-0.163174 -0.85445,-0.23093 -1.308599,-0.230532 -0.112099,9.9e-5 -0.23663,0.0049 -0.372972,0.01643 -0.677606,0.0572 -1.304719,0.252912 -1.617014,0.353778 z"
         id="path3016" />
      <path
         style="font-variation-settings:normal;opacity:1;fill:black;fill-opacity:1;fill-rule:nonzero;stroke:none;stroke-width:0.264583;stroke-linecap:round;stroke-linejoin:miter;stroke-miterlimit:4;stroke-dasharray:none;stroke-dashoffset:0;stroke-opacity:1;stop-color:black;stop-opacity:1"
         d="m 33.118825,23.324221 c -0.272492,-0.03745 -0.803962,-0.106908 -1.365363,-0.08068 -0.09382,0.0044 -0.190287,0.01101 -0.288681,0.02062 -0.538966,0.05263 -1.104432,0.192229 -1.616858,0.508814 -0.100089,0.06184 -0.196495,0.129445 -0.288728,0.202484 0.114395,0.01294 0.228703,0.02664 0.342917,0.04108 0.62391,0.07892 1.137794,0.168211 1.687877,0.286979 0.388745,0.08393 0.872927,0.194206 1.046803,0.242028 -0.202844,-0.09323 -0.576337,-0.270709 -1.000527,-0.411354 -0.398736,-0.132206 -0.846245,-0.248 -1.312601,-0.325436 0.373055,-0.185695 0.765389,-0.306154 1.16422,-0.379786 0.09421,-0.01739 0.187125,-0.03184 0.278058,-0.04373 0.551805,-0.07215 1.069111,-0.06957 1.352883,-0.06102 z"
         id="path2821" />
      <path
         id="path879"
         style="fill:#ccc;fill-opacity:1;stroke:black;stroke-width:0.529167;stroke-linecap:round;stroke-linejoin:round;stroke-miterlimit:4;stroke-dasharray:none"
         d="m 29.74099,22.339584 c 0.189921,3.239092 -2.256277,5.597508 -5.903509,5.478718 -3.526216,-0.114849 -6.180116,-2.114792 -5.787657,-5.24701 0.416344,-3.32285 2.667737,-5.364512 5.903511,-5.362854 3.239087,0.0017 5.59806,1.897612 5.787655,5.131146 z" />
      <path
         style="font-variation-settings:normal;opacity:1;fill:#ccc;fill-opacity:1;stroke:black;stroke-width:0.529167;stroke-linecap:round;stroke-linejoin:miter;stroke-miterlimit:4;stroke-dasharray:none;stroke-dashoffset:0;stroke-opacity:1;stop-color:black;stop-opacity:1"
         d="m 29.1229,22.244224 c 0.866979,-0.07829 1.43196,-0.116802 2.263486,-0.240894 -0.313765,0.972205 -1.49885,1.757658 -1.867691,2.234214 0.687223,-0.05446 0.747,-0.01348 1.173112,-0.06004 -0.528727,1.328871 -2.136271,2.484533 -3.73528,2.980046"
         id="path3051" />
      <path
         d="m 18.935783,22.978103 c -0.767119,0.05874 -1.653694,0.06667 -2.582836,0.112809 0.440522,1.115362 1.670927,1.512141 2.364995,1.928624 -0.193292,0.03397 -0.594524,0.108335 -1.19281,0.178461 0.783309,1.308227 2.648038,2.031672 4.220533,2.278807 z"
         id="path6398"
         style="fill:#ccc"
         class="UnoptimicedTransforms" />
      <path
         style="font-variation-settings:normal;opacity:1;fill:black;fill-opacity:1;fill-rule:nonzero;stroke:none;stroke-width:0.529168;stroke-linecap:round;stroke-linejoin:miter;stroke-miterlimit:4;stroke-dasharray:none;stroke-dashoffset:0;stroke-opacity:1;stop-color:black;stop-opacity:1"
         d="m 18.935783,22.978103 c -0.302577,-0.0059 -1.199226,-0.07298 -1.991497,-0.08649 -0.188903,-0.0032 -0.391201,-0.0041 -0.60132,-0.0017 -0.08581,9.8e-4 -0.171604,0.0025 -0.257391,0.0045 0.02125,0.09167 0.04803,0.181962 0.0802,0.27039 0.109834,0.301931 0.275615,0.563434 0.481561,0.792673 0.19785,0.220226 0.426113,0.403393 0.662269,0.56197 0.233128,0.156543 0.4732,0.288543 0.691797,0.405431 0.229198,0.122557 0.419201,0.220661 0.580406,0.321497 l 0.09034,-0.487463 c -0.04916,0.0052 -0.109856,0.0131 -0.184657,0.02356 -0.0733,0.01025 -0.159624,0.02285 -0.257801,0.03704 -0.21095,0.03049 -0.445577,0.06372 -0.73713,0.100539 -0.133042,0.0168 -0.266177,0.03286 -0.399399,0.04817 0.05542,0.128708 0.119532,0.253493 0.1919,0.373492 0.184531,0.305982 0.416069,0.569849 0.666319,0.795506 0.05363,0.04836 0.109572,0.09679 0.16805,0.145235 0.315396,0.261274 0.679082,0.501445 1.090918,0.714516 1.135124,0.587277 2.28096,0.782311 2.502551,0.68831 0.09681,-0.04107 0.02731,-0.173755 0.03277,-0.208506 0.0055,-0.03475 0.108248,-0.140361 0.03277,-0.208506 -0.175187,-0.158166 -1.287837,-0.316709 -2.309871,-0.794678 -0.384047,-0.179605 -0.721973,-0.384703 -1.000157,-0.613673 -0.05159,-0.04246 -0.100384,-0.08514 -0.146412,-0.12793 -0.106193,-0.09871 -0.206633,-0.203525 -0.299131,-0.31468 0.106062,-0.01533 0.204365,-0.03097 0.294269,-0.04646 0.101051,-0.01741 0.1892,-0.03424 0.263689,-0.0496 0.07539,-0.01555 0.136917,-0.02963 0.182918,-0.04115 0.181089,-0.04536 0.35678,-0.110038 0.524048,-0.192934 -0.137321,-0.108448 -0.282264,-0.206878 -0.433708,-0.294529 -0.183918,-0.106446 -0.398922,-0.209282 -0.620378,-0.31891 -0.219601,-0.10871 -0.445512,-0.224039 -0.662574,-0.358626 -0.218844,-0.135693 -0.42196,-0.286892 -0.597022,-0.464168 -0.116156,-0.117626 -0.218615,-0.245385 -0.304932,-0.385991 0.09755,-0.0086 0.192678,-0.01706 0.288044,-0.02583 0.959779,-0.08825 1.53205,-0.183313 1.978566,-0.261032 z"
         id="path4019"
         class="UnoptimicedTransforms" />
      <ellipse
         style="opacity:0.368039;fill:#880e4f;fill-opacity:1;stroke:none;stroke-width:0.264858;stroke-linecap:round;stroke-linejoin:round;stroke-miterlimit:4;stroke-dasharray:none"
         id="path38357"
         cx="24.379925"
         cy="21.164873"
         rx="1.3078476"
         ry="0.62229824"
         transform="matrix(0.97917719,0.20300747,-0.13948561,0.9902241,0,0)" />
      <g
         id="g14357"
         style="stroke-width:0.268315;stroke-miterlimit:4;stroke-dasharray:none"
         transform="matrix(0.97789089,-0.01585964,0.01612252,0.99409985,-14.933526,-9.426721)">
        <path
           style="font-variation-settings:normal;opacity:1;fill:none;fill-opacity:1;stroke:black;stroke-width:0.268315;stroke-linecap:round;stroke-linejoin:miter;stroke-miterlimit:4;stroke-dasharray:none;stroke-dashoffset:0;stroke-opacity:1;stop-color:black;stop-opacity:1"
           d="m 35.264383,35.821426 0.769782,-0.946724"
           id="path14257" />
        <path
           style="font-variation-settings:normal;opacity:1;fill:none;fill-opacity:1;stroke:black;stroke-width:0.268315;stroke-linecap:round;stroke-linejoin:miter;stroke-miterlimit:4;stroke-dasharray:none;stroke-dashoffset:0;stroke-opacity:1;stop-color:black;stop-opacity:1"
           d="m 36.616196,35.335339 -0.50055,0.958623"
           id="path14259" />
        <path
           style="font-variation-settings:normal;opacity:1;fill:none;fill-opacity:1;stroke:black;stroke-width:0.268315;stroke-linecap:round;stroke-linejoin:miter;stroke-miterlimit:4;stroke-dasharray:none;stroke-dashoffset:0;stroke-opacity:1;stop-color:black;stop-opacity:1"
           d="m 37.091879,35.477949 0.01439,1.049008"
           id="path14261" />
      </g>
      <path
         id="path233740"
         style="fill:white;stroke:none;stroke-width:0.396875;stroke-linecap:round;stroke-linejoin:round;stroke-miterlimit:4;stroke-dasharray:none"
         d="m 24.652293,23.047398 c -0.07582,1.706573 -1.216421,2.866518 -2.641044,2.783204 -1.42462,-0.08331 -2.590015,-1.146283 -2.514199,-2.852855 0.07582,-1.706573 1.36413,-3.410504 2.788751,-3.327191 1.424621,0.08331 2.442308,1.69027 2.366492,3.396842 z" />
      <ellipse
         style="fill:url(#linearGradient64530);fill-opacity:1;stroke:none;stroke-width:0.264592;stroke-linecap:round;stroke-linejoin:round;stroke-miterlimit:4;stroke-dasharray:none"
         id="path16887"
         transform="matrix(0.99422065,-0.10735593,0.11847024,0.9929576,0,0)"
         ry="1.4348888"
         rx="0.89481598"
         cy="26.011295"
         cx="17.965891" />
      <path
         id="path4921"
         style="fill:none;stroke:black;stroke-width:0.396875;stroke-linecap:round;stroke-linejoin:round;stroke-miterlimit:4;stroke-dasharray:none"
         d="m 24.652293,23.047398 c -0.07582,1.706573 -1.216421,2.866518 -2.641044,2.783204 -1.42462,-0.08331 -2.590015,-1.146283 -2.514199,-2.852855 0.07582,-1.706573 1.36413,-3.410504 2.788751,-3.327191 1.424621,0.08331 2.442308,1.69027 2.366492,3.396842 z" />
      <path
         id="path16566"
         style="font-variation-settings:normal;opacity:1;fill:#beb0f1;fill-opacity:1;stroke:black;stroke-width:0.396875;stroke-linecap:round;stroke-linejoin:miter;stroke-miterlimit:4;stroke-dasharray:none;stroke-dashoffset:0;stroke-opacity:1;stop-color:black;stop-opacity:1"
         d="m 22.152835,19.647951 c -1.370829,0.02583 -2.582387,1.676416 -2.655834,3.329658 -0.0057,0.129002 -0.004,0.25457 0.004,0.376075 1.269864,-0.490289 3.748765,-0.86686 5.13912,-0.842306 -0.132072,-1.493123 -1.080347,-2.786452 -2.354383,-2.860959 -0.04452,-0.0026 -0.08877,-0.0034 -0.132983,-0.0025 z" />
      <ellipse
         style="opacity:0.368039;fill:#880e4f;fill-opacity:1;stroke:none;stroke-width:0.264614;stroke-linecap:round;stroke-linejoin:round;stroke-miterlimit:4;stroke-dasharray:none"
         id="ellipse38461"
         cx="21.633743"
         cy="31.86202"
         rx="1.1282924"
         ry="0.5201295"
         transform="matrix(0.96669113,-0.2559458,0.23528572,0.97192625,0,0)" />
      <g
         id="g14352"
         style="stroke-width:0.273592;stroke-miterlimit:4;stroke-dasharray:none"
         transform="matrix(0.9108216,-0.08667573,0.09167806,1.0180714,-14.90228,-7.0004215)">
        <path
           style="font-variation-settings:normal;opacity:1;fill:none;fill-opacity:1;stroke:black;stroke-width:0.273592;stroke-linecap:round;stroke-linejoin:miter;stroke-miterlimit:4;stroke-dasharray:none;stroke-dashoffset:0;stroke-opacity:1;stop-color:black;stop-opacity:1"
           d="m 43.112898,34.441535 0.01392,1.363489"
           id="path14263" />
        <path
           style="font-variation-settings:normal;opacity:1;fill:none;fill-opacity:1;stroke:black;stroke-width:0.273592;stroke-linecap:round;stroke-linejoin:miter;stroke-miterlimit:4;stroke-dasharray:none;stroke-dashoffset:0;stroke-opacity:1;stop-color:black;stop-opacity:1"
           d="m 43.435541,34.347256 0.547751,1.324125"
           id="path14265" />
        <path
           style="font-variation-settings:normal;opacity:1;fill:none;fill-opacity:1;stroke:black;stroke-width:0.273592;stroke-linecap:round;stroke-linejoin:miter;stroke-miterlimit:4;stroke-dasharray:none;stroke-dashoffset:0;stroke-opacity:1;stop-color:black;stop-opacity:1"
           d="m 43.865913,34.229859 0.85454,1.084789"
           id="path14267" />
      </g>
      <path
         id="path233778"
         style="fill:white;stroke:none;stroke-width:0.396875;stroke-linecap:round;stroke-linejoin:round;stroke-miterlimit:4;stroke-dasharray:none"
         d="m 29.338113,22.533572 c 0.132953,1.640699 -0.671224,2.716169 -1.748397,2.823173 -1.077174,0.107012 -2.020055,-0.832957 -2.153008,-2.473657 -0.132955,-1.6407 0.428406,-3.358147 1.50558,-3.465151 1.077173,-0.107011 2.262872,1.474934 2.395825,3.115635 z" />
      <ellipse
         style="fill:url(#linearGradient64528);fill-opacity:1;stroke:none;stroke-width:0.264635;stroke-linecap:round;stroke-linejoin:round;stroke-miterlimit:4;stroke-dasharray:none"
         id="ellipse16991"
         transform="matrix(0.99182524,-0.12760366,0.09985421,0.99500208,0,0)"
         ry="1.4331062"
         rx="0.7324084"
         cy="26.523563"
         cx="23.86554" />
      <path
         id="path5025"
         style="fill:none;stroke:black;stroke-width:0.396875;stroke-linecap:round;stroke-linejoin:round;stroke-miterlimit:4;stroke-dasharray:none"
         d="m 29.338113,22.533572 c 0.132953,1.640699 -0.671224,2.716169 -1.748397,2.823173 -1.077174,0.107012 -2.020055,-0.832957 -2.153008,-2.473657 -0.132955,-1.6407 0.428406,-3.358147 1.50558,-3.465151 1.077173,-0.107011 2.262872,1.474934 2.395825,3.115635 z" />
      <path
         id="path16313"
         style="font-variation-settings:normal;opacity:1;fill:#beb0f1;fill-opacity:1;stroke:black;stroke-width:0.396874;stroke-linecap:round;stroke-linejoin:miter;stroke-miterlimit:4;stroke-dasharray:none;stroke-dashoffset:0;stroke-opacity:1;stop-color:black;stop-opacity:1"
         d="m 27.043621,19.412961 c -0.03383,8e-6 -0.06791,0.0014 -0.101563,0.0047 -0.993826,0.09873 -1.548261,1.568441 -1.523743,3.083831 1.285607,-0.301563 3.30203,-0.4311 3.88771,-0.240608 -0.224966,-1.487712 -1.273583,-2.850817 -2.262405,-2.848041 z" />
      <path
         style="font-variation-settings:normal;opacity:1;fill:black;fill-opacity:1;stroke:none;stroke-width:0.529168;stroke-linecap:round;stroke-linejoin:miter;stroke-miterlimit:4;stroke-dasharray:none;stroke-dashoffset:0;stroke-opacity:1;stop-color:black;stop-opacity:1"
         d="m 24.339539,24.797961 c 0.616814,-0.08139 1.168297,-0.07556 1.699669,-0.03711 l -0.749089,1.170693 z"
         id="path5753" />
      <path
         style="font-variation-settings:normal;opacity:1;fill:none;fill-opacity:1;stroke:black;stroke-width:0.264583;stroke-linecap:round;stroke-linejoin:miter;stroke-miterlimit:4;stroke-dasharray:none;stroke-dashoffset:0;stroke-opacity:1;stop-color:black;stop-opacity:1"
         d="m 23.841978,25.77363 c 0.146383,1.05368 1.028861,1.309228 1.956461,0.827681"
         id="path5889" />
      <path
         style="font-variation-settings:normal;opacity:1;fill:#283593;fill-opacity:1;stroke:black;stroke-width:0.396875;stroke-linecap:round;stroke-linejoin:miter;stroke-miterlimit:4;stroke-dasharray:none;stroke-dashoffset:0;stroke-opacity:1;stop-color:black;stop-opacity:1"
         d="m 18.378591,21.079558 c 1.83357,-2.267086 7.664532,-3.189365 10.524309,-1.162954 1.787957,-6.75124 -12.774182,-5.442011 -10.524309,1.162954 z"
         id="path8321" />
      <path
         style="font-variation-settings:normal;opacity:1;fill:#333;fill-opacity:1;stroke:black;stroke-width:0.396875;stroke-linecap:round;stroke-linejoin:miter;stroke-miterlimit:4;stroke-dasharray:none;stroke-dashoffset:0;stroke-opacity:1;stop-color:black;stop-opacity:1"
         d="m 23.048438,16.677611 c 0.716402,-0.286478 1.262531,-0.24502 1.694605,-0.201517 0.06929,0.265232 0.136804,0.623901 0.206156,0.870079 -0.618514,-0.06952 -1.228868,0.02732 -1.841878,0.07425 -0.0589,-0.247721 -0.06271,-0.507111 -0.05888,-0.742807 z"
         id="path50143" />
      <path
         style="font-variation-settings:normal;opacity:1;fill:none;fill-opacity:1;stroke:black;stroke-width:0.529167;stroke-linecap:round;stroke-linejoin:miter;stroke-miterlimit:4;stroke-dasharray:none;stroke-dashoffset:0;stroke-opacity:1;stop-color:black;stop-opacity:1"
         d="m 19.220974,23.49351 c 1.756284,-0.842929 3.680762,-0.936517 5.313409,-0.931594"
         id="path20322" />
      <path
         style="font-variation-settings:normal;opacity:1;fill:none;fill-opacity:1;stroke:black;stroke-width:0.529167;stroke-linecap:round;stroke-linejoin:miter;stroke-miterlimit:4;stroke-dasharray:none;stroke-dashoffset:0;stroke-opacity:1;stop-color:black;stop-opacity:1"
         d="m 25.545332,22.576315 c 1.225698,-0.472601 2.577804,-0.460871 3.855255,-0.350632"
         id="path20534" />
      <path
         style="font-variation-settings:normal;fill:#8e24aa;fill-opacity:1;stroke:black;stroke-width:0.396875;stroke-linecap:round;stroke-linejoin:miter;stroke-miterlimit:4;stroke-dasharray:none;stroke-dashoffset:0;stroke-opacity:1;stop-color:black"
         d="m 24.552864,16.127114 0.04359,1.306937 c 0.452679,0.629857 3.153212,0.822604 3.494616,0.305874 l 0.164104,-1.113695"
         id="path54212" />
      <path
         id="ellipse48615"
         style="fill:#8e24aa;fill-opacity:1;stroke:black;stroke-width:0.396875;stroke-linecap:round;stroke-linejoin:round"
         d="m 28.256154,16.727562 c -0.06709,0.436519 -0.896582,0.662815 -1.971994,0.575152 -1.075409,-0.08766 -1.773628,-0.565245 -1.761535,-1.005186 0.01261,-0.458782 0.727166,-0.910376 2.067472,-0.714454 1.064434,0.155598 1.733146,0.70797 1.666057,1.144488 z" />
      <path
         id="path51578"
         style="fill:black;stroke:none;stroke-width:0.396875;stroke-linecap:round;stroke-linejoin:round"
         d="m 27.706144,16.638567 c -0.05714,0.263615 -0.640936,0.375543 -1.388805,0.28871 -0.747867,-0.08683 -1.223459,-0.399265 -1.204602,-0.666673 0.01974,-0.278862 0.52866,-0.531502 1.458684,-0.370533 0.738603,0.127829 1.191849,0.484879 1.134723,0.748496 z" />
      <path
         style="font-variation-settings:normal;opacity:1;fill:#333;fill-opacity:1;stroke:black;stroke-width:0.396875;stroke-linecap:round;stroke-linejoin:miter;stroke-miterlimit:4;stroke-dasharray:none;stroke-dashoffset:0;stroke-opacity:1;stop-color:black;stop-opacity:1"
         d="m 18.230537,20.484822 c 0.421775,-0.670129 1.587246,-1.882582 2.552088,-2.391802 -0.109306,-0.202998 -0.288549,-0.474946 -0.342699,-0.774532 -0.675295,0.319383 -1.659964,1.27116 -2.214922,1.835255 -0.230326,0.523525 -0.05808,0.890563 0.0055,1.331079 z"
         id="path49771" />
      <path
         style="font-variation-settings:normal;fill:#8e24aa;fill-opacity:1;stroke:black;stroke-width:0.396874;stroke-linecap:round;stroke-linejoin:miter;stroke-miterlimit:4;stroke-dasharray:none;stroke-dashoffset:0;stroke-opacity:1;stop-color:black"
         d="m 23.620561,16.265635 0.0049,1.128766 c 0.178832,1.076079 -3.501189,1.562215 -3.791574,1.075113 l -0.174104,-1.454368"
         id="path51651" />
      <path
         id="path48445"
         style="fill:#8e24aa;fill-opacity:1;stroke:black;stroke-width:0.396874;stroke-linecap:round;stroke-linejoin:round"
         d="m 23.658865,16.440948 c 0.07485,0.535739 -0.819298,1.076215 -2.212105,1.332462 -1.185457,0.218098 -1.777635,-0.04882 -1.85248,-0.584558 -0.07485,-0.535738 0.792302,-1.162167 1.973873,-1.397815 1.181573,-0.235648 2.015865,0.114174 2.090712,0.649911 z" />
      <path
         id="path51558"
         style="fill:black;stroke:none;stroke-width:0.396874;stroke-linecap:round;stroke-linejoin:round"
         d="m 22.990998,16.43318 c 0.06822,0.300762 -0.508867,0.643515 -1.427879,0.845318 -0.782196,0.171758 -1.185822,0.04434 -1.254047,-0.256336 -0.06822,-0.30076 0.487934,-0.691159 1.266943,-0.872714 0.779007,-0.181562 1.346754,-0.01704 1.414983,0.283732 z" />
      <path
         style="font-variation-settings:normal;opacity:1;fill:#d81b60;fill-opacity:1;stroke:black;stroke-width:0.396875;stroke-linecap:round;stroke-linejoin:round;stroke-miterlimit:4;stroke-dasharray:none;stroke-dashoffset:0;stroke-opacity:1;stop-color:black;stop-opacity:1"
         d="m 18.307357,20.893682 c 1.621873,-4.514448 14.260562,-4.244491 10.77605,-0.9249 -1.92727,-1.701671 -6.52966,-1.636586 -10.77605,0.9249 z"
         id="path9282" />
      <path
         id="path87598"
         style="font-variation-settings:normal;opacity:1;fill:#f6be1a;fill-opacity:1;stroke:black;stroke-width:0.396876;stroke-linecap:round;stroke-linejoin:miter;stroke-miterlimit:4;stroke-dasharray:none;stroke-dashoffset:0;stroke-opacity:1;stop-color:black;stop-opacity:1"
         d="m 29.390781,32.124501 c -0.77176,0.278249 -1.575088,0.572281 -2.35512,0.899208 0.0077,0.244909 0.01482,0.488576 0.02258,0.728921 0.865008,-0.283237 1.805341,-0.648687 2.536827,-1.030861 -0.06421,-0.197912 -0.132132,-0.396995 -0.204303,-0.597268 z" />
      <path
         style="font-variation-settings:normal;opacity:1;fill:#f6be1a;fill-opacity:1;stroke:black;stroke-width:0.396875;stroke-linecap:round;stroke-linejoin:round;stroke-miterlimit:4;stroke-dasharray:none;stroke-dashoffset:0;stroke-opacity:1;stop-color:black;stop-opacity:1"
         d="m 29.344888,28.298672 c -0.286505,1.526764 2.829946,1.643992 3.152147,0.449653 0.260978,2.427823 -4.210914,1.804316 -3.152147,-0.449653 z"
         id="path104391" />
      <path
         style="font-variation-settings:normal;opacity:1;fill:black;fill-opacity:1;fill-rule:nonzero;stroke:none;stroke-width:0.396875;stroke-linecap:round;stroke-linejoin:miter;stroke-miterlimit:4;stroke-dasharray:none;stroke-dashoffset:0;stroke-opacity:1;stop-color:black;stop-opacity:1"
         d="M 27.725883,31.878755 C 27.467375,31.51367 27.331974,30.97637 27.331974,30.97637 c 0,0 -0.07557,0.557564 0.228849,1.015324 0.01196,0.01748 0.02453,0.03439 0.03777,0.05067 0.304277,0.346783 0.694935,0.127403 0.694935,0.127403 0,0 -0.383327,-0.03665 -0.539787,-0.253613 -0.0095,-0.01174 -0.01883,-0.0242 -0.02786,-0.0374 z"
         id="path117056" />
      <path
         style="font-variation-settings:normal;opacity:1;fill:none;fill-opacity:1;stroke:black;stroke-width:0.211667;stroke-linecap:round;stroke-linejoin:miter;stroke-miterlimit:4;stroke-dasharray:none;stroke-dashoffset:0;stroke-opacity:1;stop-color:black;stop-opacity:1"
         d="m 23.493088,31.067973 c -0.08236,0.705571 -0.424448,1.379383 -0.892253,1.664281"
         id="path127757" />
      <path
         style="font-variation-settings:normal;opacity:1;fill:none;fill-opacity:1;stroke:black;stroke-width:0.264583;stroke-linecap:round;stroke-linejoin:miter;stroke-miterlimit:4;stroke-dasharray:none;stroke-dashoffset:0;stroke-opacity:1;stop-color:black;stop-opacity:1"
         d="m 25.261404,25.608476 c -0.01951,0.671812 -0.330685,0.871486 -0.698797,1.112989"
         id="path131548" />
      <g
         id="g132082"
         clip-path="url(#clipPath132180)"
         style="opacity:1;fill:#e1bee7"
         transform="translate(-15.714751,-9.8281187)">
        <path
           style="font-variation-settings:normal;opacity:1;fill:#e1bee7;fill-opacity:1;stroke:none;stroke-width:0.529167;stroke-linecap:round;stroke-linejoin:miter;stroke-miterlimit:4;stroke-dasharray:none;stroke-dashoffset:0;stroke-opacity:1;stop-color:black;stop-opacity:1"
           d="m 37.344123,25.557608 -0.302494,2.36182 c -2.73149,1.095711 -2.36718,-3.23008 0.168052,-2.487783"
           id="path131952" />
        <path
           style="font-variation-settings:normal;opacity:1;fill:#e1bee7;fill-opacity:1;stroke:none;stroke-width:0.529167;stroke-linecap:round;stroke-linejoin:miter;stroke-miterlimit:4;stroke-dasharray:none;stroke-dashoffset:0;stroke-opacity:1;stop-color:black;stop-opacity:1"
           d="m 37.6212,25.337355 -0.246293,3.171017 0.708093,10e-7 0.153933,-3.448097 z"
           id="path131954" />
      </g>
      <g
         id="g132078"
         clip-path="url(#clipPath132186)"
         style="opacity:1;fill:#e1bee7"
         transform="translate(-15.714751,-9.8281187)">
        <path
           style="font-variation-settings:normal;opacity:1;fill:#e1bee7;fill-opacity:1;stroke:none;stroke-width:0.529167;stroke-linecap:round;stroke-linejoin:miter;stroke-miterlimit:4;stroke-dasharray:none;stroke-dashoffset:0;stroke-opacity:1;stop-color:black;stop-opacity:1"
           d="m 42.478221,25.116157 -0.547739,2.317257 c 2.171403,1.986613 3.352208,-2.190813 0.7179,-2.38787"
           id="path132072" />
        <path
           style="font-variation-settings:normal;opacity:1;fill:#e1bee7;fill-opacity:1;stroke:none;stroke-width:0.529167;stroke-linecap:round;stroke-linejoin:miter;stroke-miterlimit:4;stroke-dasharray:none;stroke-dashoffset:0;stroke-opacity:1;stop-color:black;stop-opacity:1"
           d="m 42.296341,24.812508 -0.885024,3.054953 -0.662828,-0.249109 1.068958,-3.281827 z"
           id="path132074" />
      </g>
      <path
         d="m 23.561181,19.429546 c 1.662202,-0.395501 2.177719,-1.36429 3.175493,-3.062806 1.351718,1.270529 1.416933,2.599587 0.482356,3.365304 2.652475,0.807055 -0.0272,3.432596 -2.130396,1.663746 z"
         id="path6374"
         style="fill:#ccc"
         class="UnoptimicedTransforms" />
      <path
         style="font-variation-settings:normal;opacity:1;fill:black;fill-opacity:1;fill-rule:nonzero;stroke:none;stroke-width:0.396875;stroke-linecap:round;stroke-linejoin:miter;stroke-miterlimit:4;stroke-dasharray:none;stroke-dashoffset:0;stroke-opacity:1;stop-color:black;stop-opacity:1"
         d="m 23.561181,19.429546 c 0.26015,-0.0435 0.681573,-0.118346 1.107888,-0.319166 0.266112,-0.125355 0.489347,-0.278623 0.668294,-0.441024 0.06288,-0.05707 0.121344,-0.116263 0.176211,-0.176853 0.23307,-0.257377 0.423903,-0.565892 0.639922,-0.922239 0.06025,-0.09939 0.126158,-0.208772 0.196183,-0.323622 0.117719,-0.193074 0.261359,-0.428995 0.410162,-0.670191 0.251999,0.266875 0.456734,0.546413 0.606009,0.829629 0.151556,0.287543 0.244593,0.576404 0.272261,0.855607 0.0225,0.227063 -0.0022,0.474746 -0.111021,0.717126 -0.09136,0.203437 -0.240017,0.398266 -0.4589,0.569127 -0.155709,0.121548 -0.329794,0.217505 -0.515705,0.284262 0.202672,0.02354 0.402654,0.06625 0.597264,0.127542 0.308406,0.09713 0.524513,0.216107 0.668571,0.338353 0.07139,0.06058 0.124036,0.12105 0.162044,0.179144 0.03811,0.05826 0.06218,0.115105 0.07584,0.169532 0.01382,0.05506 0.01767,0.110272 0.0128,0.165385 -0.005,0.05646 -0.01921,0.114072 -0.04273,0.172395 -0.04945,0.122663 -0.138555,0.244348 -0.259763,0.353906 -0.132086,0.119392 -0.293982,0.217081 -0.469358,0.288296 -0.204507,0.08304 -0.416241,0.126019 -0.619913,0.138589 -0.283726,0.01751 -0.528927,-0.02456 -0.723662,-0.07074 -0.0061,-0.0014 -0.01213,-0.0029 -0.01809,-0.0043 -0.381396,-0.09227 -0.713373,-0.217491 -0.84685,-0.294481 0.09205,0.1103 0.306042,0.430104 0.723831,0.630853 0.0064,0.0031 0.01297,0.0062 0.01959,0.0093 0.209766,0.09766 0.503386,0.184966 0.854306,0.18986 0.252692,0.0035 0.523157,-0.03625 0.789177,-0.133532 0.227275,-0.08311 0.44694,-0.207167 0.632372,-0.370931 0.169261,-0.149484 0.312426,-0.334578 0.396123,-0.546812 0.04026,-0.102084 0.06671,-0.210541 0.07475,-0.323019 0.0079,-0.110716 -0.0022,-0.223686 -0.03312,-0.335795 -0.0306,-0.1108 -0.08083,-0.217959 -0.15078,-0.319215 -0.06938,-0.100435 -0.157195,-0.193714 -0.262589,-0.278967 -0.133417,-0.107921 -0.295325,-0.203291 -0.485654,-0.285109 0.123636,-0.154228 0.216928,-0.318432 0.28232,-0.487507 0.127315,-0.329181 0.139758,-0.65114 0.10336,-0.929174 -0.04493,-0.343221 -0.180444,-0.674041 -0.370718,-0.979997 -0.214584,-0.345046 -0.503392,-0.666608 -0.835842,-0.963741 -0.04113,-0.03676 -0.08275,-0.07299 -0.124829,-0.10866 10e-7,-1e-6 -0.0764,0.137554 -0.0764,0.137553 -0.174763,0.314658 -0.323177,0.581577 -0.471122,0.826717 -0.06952,0.115199 -0.135793,0.218914 -0.200272,0.314654 -0.22807,0.338647 -0.454158,0.605246 -0.670531,0.838812 -0.05115,0.05521 -0.104427,0.111341 -0.158464,0.166797 -0.155753,0.159842 -0.330267,0.326719 -0.556644,0.487748 -0.365955,0.260313 -0.746303,0.413096 -1.006313,0.493957 z"
         id="path150479"
         class="UnoptimicedTransforms" />
      <g
         id="g4004"
         transform="matrix(0.97241338,0,0,0.973,0.79646885,0.7911874)"
         style="stroke-width:1.02806">
        <path
           style="font-variation-settings:normal;opacity:1;fill:#ccc;fill-opacity:1;stroke:black;stroke-width:0.408011;stroke-linecap:round;stroke-linejoin:miter;stroke-miterlimit:4;stroke-dasharray:none;stroke-dashoffset:0;stroke-opacity:1;stop-color:black;stop-opacity:1"
           d="m 30.446099,27.459025 c -1.246731,-1.164298 -2.585089,1.463248 -0.809014,1.287421"
           id="path2064" />
        <path
           style="font-variation-settings:normal;opacity:1;fill:#ccc;fill-opacity:1;stroke:black;stroke-width:0.408011;stroke-linecap:round;stroke-linejoin:round;stroke-miterlimit:4;stroke-dasharray:none;stroke-dashoffset:0;stroke-opacity:1;stop-color:black;stop-opacity:1"
           d="m 32.373971,26.045616 c 0.05815,0.290844 0.114468,0.615853 0.06588,0.922307 2.152,3.804781 -5.818949,2.926431 -2.227201,0.214574 -0.03433,-0.282504 0.02025,-0.522514 0.02025,-0.807486"
           id="path1056" />
        <path
           style="font-variation-settings:normal;opacity:1;fill:#ccc;fill-opacity:1;stroke:black;stroke-width:0.408011;stroke-linecap:round;stroke-linejoin:miter;stroke-miterlimit:4;stroke-dasharray:none;stroke-dashoffset:0;stroke-opacity:1;stop-color:black;stop-opacity:1"
           d="m 31.286967,26.803222 c -0.397827,-3.904635 2.486436,-2.624834 1.140198,0.127524"
           id="path1552" />
        <path
           style="font-variation-settings:normal;opacity:1;fill:#ccc;fill-opacity:1;stroke:black;stroke-width:0.408011;stroke-linecap:round;stroke-linejoin:miter;stroke-miterlimit:4;stroke-dasharray:none;stroke-dashoffset:0;stroke-opacity:1;stop-color:black;stop-opacity:1"
           d="m 30.328375,27.087443 c -2.578388,-1.989743 0.468284,-4.480766 0.99153,-0.218342"
           id="path1382" />
      </g>
    </g>
  </g>
</svg>
